<svg width="218" height="26" viewBox="0 0 218 26" fill="none" xmlns="http://www.w3.org/2000/svg">
<g id="LOGO_FULL#000000">
<path id="Vector" d="M10.3272 2.69388C6.51588 -1.10811 0 1.58426 0 6.96253C0 10.2966 2.70845 12.9993 6.04953 12.9993H20.5894L10.3272 2.69388Z" fill="#000000"/>
<path id="Vector_2" d="M30.8501 23.3054C34.6615 27.1087 41.1773 24.415 41.1773 19.0368C41.1773 15.7027 38.4689 13 35.1278 13H20.5879L30.8501 23.3054Z" fill="#000000"/>
<path id="Vector_3" d="M6.05602 25.0865C9.40067 25.0865 12.112 22.3809 12.112 19.0433C12.112 15.7057 9.40067 13 6.05602 13C2.71137 13 0 15.7057 0 19.0433C0 22.3809 2.71137 25.0865 6.05602 25.0865Z" fill="#000000"/>
<path id="Vector_4" d="M35.1224 13.0006C38.4671 13.0006 41.1785 10.2949 41.1785 6.95732C41.1785 3.61972 38.4671 0.914062 35.1224 0.914062C31.7778 0.914062 29.0664 3.61972 29.0664 6.95732C29.0664 10.2949 31.7778 13.0006 35.1224 13.0006Z" fill="#000000"/>
<path id="Vector_5" d="M60.1505 24.6956V10.9719H57.1602V7.59768H60.1505V5.7803C60.1505 4.85086 60.3181 4.01736 60.6545 3.28237C60.991 2.54738 61.521 1.96794 62.2484 1.54665C62.9746 1.12536 63.9228 0.914062 65.0933 0.914062C65.483 0.914062 65.8792 0.936099 66.2806 0.978876C66.6807 1.02295 67.0652 1.08128 67.4341 1.15776C67.803 1.23424 68.1278 1.32498 68.4097 1.43387V4.25717H66.491C65.7545 4.25717 65.218 4.39198 64.8815 4.6629C64.5451 4.93383 64.3775 5.34993 64.3775 5.91252V7.60027H68.4097V10.9745H64.3775V24.6982H60.1505V24.6956Z" fill="#000000"/>
<path id="Vector_6" d="M70.8783 24.6951V7.59721H74.357L74.6818 10.4516H74.9091C75.1468 9.88903 75.456 9.36015 75.8353 8.86238C76.2146 8.36461 76.7018 7.96536 77.298 7.66203C77.8943 7.3587 78.5827 7.20703 79.3634 7.20703C79.7324 7.20703 80.0831 7.23944 80.4195 7.30425C80.7547 7.36907 81.0418 7.44555 81.2808 7.5311V11.359H79.5583C78.7776 11.359 78.1112 11.4783 77.5591 11.7155C77.007 11.954 76.5459 12.2949 76.1769 12.737C75.808 13.1803 75.5378 13.6936 75.3638 14.2782C75.1897 14.8629 75.104 15.511 75.104 16.2253V24.6938H70.877L70.8783 24.6951Z" fill="#000000"/>
<path id="Vector_7" d="M92.1744 25.0847C90.1583 25.0847 88.4514 24.7658 87.0536 24.128C85.6559 23.4903 84.5881 22.5116 83.8516 21.192C83.1137 19.8723 82.7461 18.1963 82.7461 16.1637C82.7461 14.1311 83.1085 12.4537 83.8347 11.1354C84.5608 9.8158 85.6234 8.83193 87.0212 8.18249C88.4189 7.53305 90.1154 7.20898 92.1094 7.20898C94.1034 7.20898 95.7012 7.52787 97.0353 8.16564C98.3681 8.80341 99.3696 9.76136 100.043 11.0369C100.714 12.3137 101.051 13.9133 101.051 15.8383V17.2007H87.1342C87.1771 18.2611 87.3992 19.1309 87.8006 19.8127C88.2007 20.4946 88.7761 20.9923 89.5231 21.3047C90.2713 21.6184 91.1871 21.7753 92.2705 21.7753C92.7472 21.7753 93.2461 21.7157 93.7657 21.5964C94.2853 21.4771 94.762 21.2995 95.1959 21.061C95.6285 20.8238 95.9922 20.5088 96.2845 20.1199C96.5767 19.731 96.7339 19.2761 96.756 18.7575H100.983C100.983 19.731 100.778 20.6073 100.366 21.3851C99.9542 22.1642 99.3631 22.8292 98.5941 23.3801C97.8251 23.931 96.8976 24.3536 95.8142 24.6452C94.7295 24.9369 93.5163 25.0834 92.1718 25.0834L92.1744 25.0847ZM87.1667 14.3126H96.6287C96.6287 13.6424 96.5144 13.0695 96.2871 12.5924C96.0597 12.1167 95.7402 11.7213 95.3284 11.4076C94.9166 11.0939 94.4399 10.8671 93.8982 10.7258C93.3565 10.5858 92.7706 10.5145 92.1419 10.5145C91.1663 10.5145 90.3207 10.6558 89.6062 10.9358C88.8918 11.2171 88.3332 11.6384 87.9318 12.201C87.5304 12.7635 87.2758 13.4661 87.1667 14.31V14.3126Z" fill="#000000"/>
<path id="Vector_8" d="M113.405 25.0847C111.389 25.0847 109.682 24.7658 108.284 24.128C106.886 23.4903 105.819 22.5116 105.082 21.192C104.344 19.8723 103.977 18.1963 103.977 16.1637C103.977 14.1311 104.339 12.4537 105.065 11.1354C105.791 9.8158 106.854 8.83193 108.252 8.18249C109.649 7.53305 111.346 7.20898 113.34 7.20898C115.334 7.20898 116.933 7.52787 118.266 8.16564C119.599 8.80341 120.601 9.76136 121.273 11.0369C121.945 12.3137 122.281 13.9133 122.281 15.8383V17.2007H108.366C108.409 18.2611 108.631 19.1309 109.032 19.8127C109.434 20.4946 110.008 20.9923 110.756 21.3047C111.504 21.6184 112.419 21.7753 113.504 21.7753C113.98 21.7753 114.479 21.7157 115 21.5964C115.52 21.4771 115.996 21.2995 116.43 21.061C116.864 20.8238 117.227 20.5088 117.52 20.1199C117.812 19.731 117.97 19.2761 117.992 18.7575H122.219C122.219 19.731 122.012 20.6073 121.6 21.3851C121.189 22.1642 120.598 22.8292 119.828 23.3801C119.059 23.931 118.132 24.3536 117.049 24.6452C115.965 24.9369 114.751 25.0834 113.407 25.0834L113.405 25.0847ZM108.397 14.3126H117.858C117.858 13.6424 117.744 13.0695 117.516 12.5924C117.289 12.1167 116.968 11.7213 116.556 11.4076C116.144 11.0939 115.668 10.8671 115.126 10.7258C114.584 10.5858 113.998 10.5145 113.371 10.5145C112.396 10.5145 111.55 10.6558 110.835 10.9358C110.121 11.2171 109.561 11.6384 109.161 12.201C108.76 12.7635 108.505 13.4661 108.397 14.31V14.3126Z" fill="#000000"/>
<path id="Vector_9" d="M125.955 24.6958V7.59787H129.434L129.759 10.193H130.018C130.517 9.52284 131.102 8.96544 131.775 8.52212C132.446 8.07879 133.178 7.74953 133.969 7.53305C134.76 7.31658 135.566 7.20898 136.39 7.20898C137.733 7.20898 138.883 7.43065 139.836 7.87398C140.79 8.3173 141.521 9.00952 142.03 9.95062C142.54 10.8917 142.794 12.1193 142.794 13.6333V24.6971H138.567V14.38C138.567 13.7098 138.481 13.1472 138.307 12.6935C138.133 12.2385 137.884 11.8769 137.559 11.606C137.234 11.3363 136.838 11.1406 136.372 11.0226C135.906 10.9047 135.391 10.8438 134.827 10.8438C134.004 10.8438 133.24 11.0278 132.536 11.396C131.831 11.7641 131.262 12.2723 130.829 12.9204C130.395 13.5698 130.178 14.3269 130.178 15.1915V24.6984H125.951L125.955 24.6958Z" fill="#000000"/>
<path id="Vector_10" d="M152.519 25.084C151.781 25.084 151.039 25.014 150.292 24.8727C149.544 24.7314 148.862 24.4838 148.244 24.1261C147.627 23.7696 147.133 23.2718 146.764 22.6341C146.395 21.9963 146.211 21.1693 146.211 20.1517C146.211 18.8761 146.53 17.8534 147.171 17.086C147.81 16.3186 148.709 15.734 149.869 15.3334C151.029 14.9342 152.399 14.6684 153.982 14.5388C155.564 14.4092 157.286 14.3443 159.152 14.3443V13.2736C159.152 12.6683 159.027 12.1601 158.778 11.7492C158.528 11.3383 158.116 11.0298 157.542 10.8249C156.968 10.6201 156.171 10.5164 155.152 10.5164C154.264 10.5164 153.522 10.5981 152.926 10.7601C152.329 10.9222 151.885 11.1386 151.593 11.4096C151.3 11.6805 151.154 11.989 151.154 12.3338V12.7551H146.992C146.97 12.6475 146.959 12.5438 146.959 12.4466V12.1057C146.959 11.1114 147.289 10.2455 147.952 9.51052C148.612 8.77553 149.566 8.20776 150.812 7.80721C152.059 7.40666 153.559 7.20703 155.314 7.20703C157.069 7.20703 158.609 7.40666 159.801 7.80721C160.994 8.20776 161.887 8.81831 162.484 9.64015C163.08 10.462 163.377 11.5223 163.377 12.8199V20.5095C163.377 20.9204 163.48 21.2237 163.687 21.4181C163.892 21.6126 164.17 21.7098 164.515 21.7098H165.848V24.5331C165.631 24.62 165.279 24.7275 164.792 24.8572C164.305 24.9868 163.736 25.0516 163.085 25.0516C162.327 25.0516 161.703 24.9492 161.216 24.7431C160.729 24.5383 160.349 24.2466 160.078 23.8668C159.806 23.4883 159.618 23.0502 159.509 22.5524H159.282C158.805 23.0722 158.226 23.5207 157.542 23.8992C156.859 24.2777 156.1 24.5694 155.266 24.7755C154.431 24.9803 153.515 25.084 152.519 25.084ZM153.689 21.7098C154.361 21.7098 155.023 21.6243 155.673 21.4506C156.324 21.2781 156.908 21.0344 157.428 20.7207C157.949 20.407 158.366 20.013 158.68 19.5359C158.993 19.0602 159.152 18.53 159.152 17.9467V17.1352C157.353 17.1352 155.803 17.2117 154.503 17.3621C153.202 17.5138 152.205 17.7899 151.512 18.1891C150.819 18.5897 150.472 19.1574 150.472 19.8924C150.472 20.3254 150.612 20.6767 150.894 20.9463C151.176 21.2172 151.56 21.4117 152.049 21.5309C152.536 21.6502 153.083 21.7098 153.691 21.7098H153.689Z" fill="#000000"/>
<path id="Vector_11" d="M168.158 24.6958V7.59787H171.636L171.961 10.193H172.221C172.698 9.52284 173.25 8.96544 173.878 8.52212C174.507 8.07879 175.196 7.74953 175.943 7.53305C176.691 7.31658 177.455 7.20898 178.235 7.20898C179.536 7.20898 180.646 7.4475 181.567 7.92323C182.488 8.39897 183.177 9.156 183.631 10.1943H183.891C184.389 9.52414 184.964 8.96674 185.614 8.52341C186.265 8.08008 186.969 7.75083 187.727 7.53435C188.486 7.31787 189.265 7.21028 190.068 7.21028C191.346 7.21028 192.435 7.42676 193.335 7.85972C194.234 8.29267 194.929 8.97452 195.416 9.90395C195.903 10.8347 196.147 12.0454 196.147 13.5374V24.6984H191.92V14.3489C191.92 13.6787 191.839 13.1161 191.676 12.6611C191.514 12.2074 191.287 11.8497 190.993 11.5904C190.701 11.3312 190.347 11.1419 189.937 11.0226C189.525 10.9047 189.069 10.8438 188.57 10.8438C187.791 10.8438 187.075 11.0278 186.424 11.396C185.774 11.7641 185.254 12.2723 184.864 12.9204C184.473 13.5698 184.278 14.3269 184.278 15.1915V24.6984H180.051V14.3489C180.051 13.6787 179.97 13.1161 179.807 12.6611C179.645 12.2074 179.417 11.8497 179.124 11.5904C178.832 11.3312 178.478 11.1419 178.068 11.0226C177.656 10.9047 177.19 10.8438 176.67 10.8438C175.911 10.8438 175.201 11.0278 174.541 11.396C173.88 11.7641 173.354 12.2723 172.964 12.9204C172.574 13.5698 172.379 14.3269 172.379 15.1915V24.6984H168.152L168.158 24.6958Z" fill="#000000"/>
<path id="Vector_12" d="M209.124 25.0847C207.108 25.0847 205.401 24.7658 204.003 24.128C202.605 23.4903 201.537 22.5116 200.801 21.192C200.063 19.8723 199.695 18.1963 199.695 16.1637C199.695 14.1311 200.058 12.4537 200.784 11.1354C201.51 9.8158 202.573 8.83193 203.97 8.18249C205.368 7.53305 207.065 7.20898 209.059 7.20898C211.053 7.20898 212.652 7.52787 213.985 8.16564C215.317 8.80341 216.32 9.76136 216.992 11.0369C217.663 12.3137 218 13.9133 218 15.8383V17.2007H204.085C204.128 18.2611 204.35 19.1309 204.751 19.8127C205.152 20.4946 205.727 20.9923 206.475 21.3047C207.223 21.6184 208.138 21.7753 209.222 21.7753C209.699 21.7753 210.198 21.7157 210.719 21.5964C211.238 21.4771 211.715 21.2995 212.149 21.061C212.583 20.8238 212.945 20.5088 213.239 20.1199C213.531 19.731 213.688 19.2761 213.71 18.7575H217.937C217.937 19.731 217.731 20.6073 217.319 21.3851C216.907 22.1642 216.316 22.8292 215.547 23.3801C214.778 23.931 213.851 24.3536 212.767 24.6452C211.684 24.9369 210.469 25.0834 209.126 25.0834L209.124 25.0847ZM204.116 14.3126H213.577C213.577 13.6424 213.462 13.0695 213.235 12.5924C213.008 12.1167 212.687 11.7213 212.275 11.4076C211.863 11.0939 211.386 10.8671 210.845 10.7258C210.303 10.5858 209.717 10.5145 209.09 10.5145C208.114 10.5145 207.269 10.6558 206.554 10.9358C205.84 11.2171 205.28 11.6384 204.88 12.201C204.478 12.7635 204.224 13.4661 204.116 14.31V14.3126Z" fill="#000000"/>
</g>
</svg>
